<svg width="42" height="42" viewBox="0 0 42 42" fill="none" xmlns="http://www.w3.org/2000/svg">
<path fill-rule="evenodd" clip-rule="evenodd" d="M20.699 3.9375C19.096 3.9375 17.7257 5.09775 17.4615 6.67975L17.3022 7.6405C17.2581 7.88166 17.1513 8.10696 16.9924 8.29373C16.8336 8.4805 16.6284 8.62217 16.3975 8.7045C16.1147 8.81028 15.8357 8.92585 15.561 9.051C15.3394 9.15633 15.094 9.20144 14.8495 9.18178C14.6049 9.16212 14.3699 9.07838 14.168 8.939L13.3752 8.372C12.7431 7.92039 11.9713 7.7077 11.1971 7.7718C10.4229 7.83589 9.6965 8.1726 9.14725 8.722L8.722 9.14725C8.1726 9.6965 7.83589 10.4229 7.7718 11.1971C7.7077 11.9713 7.92039 12.7431 8.372 13.3752L8.939 14.168C9.07838 14.3699 9.16212 14.6049 9.18178 14.8495C9.20144 15.094 9.15633 15.3394 9.051 15.561C8.92585 15.8357 8.81028 16.1147 8.7045 16.3975C8.62217 16.6284 8.4805 16.8336 8.29373 16.9924C8.10696 17.1513 7.88166 17.2581 7.6405 17.3022L6.678 17.4633C5.91223 17.5912 5.21664 17.9865 4.71487 18.579C4.21309 19.1714 3.93765 19.9226 3.9375 20.699V21.301C3.9375 22.904 5.09775 24.2743 6.67975 24.5385L7.6405 24.6978C8.13225 24.78 8.5295 25.1353 8.7045 25.6025C8.8095 25.886 8.92675 26.1642 9.051 26.439C9.15633 26.6606 9.20144 26.906 9.18178 27.1505C9.16212 27.3951 9.07838 27.6301 8.939 27.832L8.372 28.6248C7.92039 29.2569 7.7077 30.0287 7.7718 30.8029C7.83589 31.5771 8.1726 32.3035 8.722 32.8528L9.14725 33.278C10.2813 34.412 12.0697 34.5607 13.3752 33.628L14.168 33.061C14.3699 32.9216 14.6049 32.8379 14.8495 32.8182C15.094 32.7986 15.3394 32.8437 15.561 32.949C15.8358 33.0732 16.114 33.1887 16.3975 33.2955C16.8647 33.4705 17.22 33.8678 17.3022 34.3595L17.4633 35.322C17.7257 36.9022 19.0942 38.0625 20.699 38.0625H21.301C22.904 38.0625 24.2743 36.9023 24.5385 35.3203L24.6978 34.3595C24.7419 34.1183 24.8487 33.893 25.0076 33.7063C25.1664 33.5195 25.3716 33.3778 25.6025 33.2955C25.8852 33.1896 26.1642 33.0741 26.439 32.949C26.6606 32.8437 26.906 32.7986 27.1505 32.8182C27.3951 32.8379 27.6301 32.9216 27.832 33.061L28.6248 33.628C29.2569 34.0796 30.0287 34.2923 30.8029 34.2282C31.5771 34.1641 32.3035 33.8274 32.8528 33.278L33.278 32.8528C34.412 31.7188 34.5607 29.9303 33.628 28.6248L33.061 27.832C32.9216 27.6301 32.8379 27.3951 32.8182 27.1505C32.7986 26.906 32.8437 26.6606 32.949 26.439C33.0732 26.1642 33.1887 25.886 33.2955 25.6025C33.4705 25.1353 33.8678 24.78 34.3595 24.6978L35.322 24.5385C36.0881 24.4105 36.7839 24.0149 37.2857 23.4221C37.7875 22.8293 38.0628 22.0777 38.0625 21.301V20.699C38.0625 19.096 36.9023 17.7257 35.3203 17.4615L34.3595 17.3022C34.1183 17.2581 33.893 17.1513 33.7063 16.9924C33.5195 16.8336 33.3778 16.6284 33.2955 16.3975C33.1896 16.1148 33.0741 15.8358 32.949 15.561C32.8437 15.3394 32.7986 15.094 32.8182 14.8495C32.8379 14.6049 32.9216 14.3699 33.061 14.168L33.628 13.3752C34.0796 12.7431 34.2923 11.9713 34.2282 11.1971C34.1641 10.4229 33.8274 9.6965 33.278 9.14725L32.8528 8.722C32.3035 8.1726 31.5771 7.83589 30.8029 7.7718C30.0287 7.7077 29.2569 7.92039 28.6248 8.372L27.832 8.939C27.6301 9.07838 27.3951 9.16212 27.1505 9.18178C26.906 9.20144 26.6606 9.15633 26.439 9.051C26.1643 8.92587 25.8853 8.8103 25.6025 8.7045C25.3716 8.62217 25.1664 8.4805 25.0076 8.29373C24.8487 8.10696 24.7419 7.88166 24.6978 7.6405L24.5385 6.678C24.4105 5.91193 24.0149 5.21611 23.4221 4.7143C22.8293 4.21249 22.0777 3.93724 21.301 3.9375H20.699ZM21 27.5625C22.7405 27.5625 24.4097 26.8711 25.6404 25.6404C26.8711 24.4097 27.5625 22.7405 27.5625 21C27.5625 19.2595 26.8711 17.5903 25.6404 16.3596C24.4097 15.1289 22.7405 14.4375 21 14.4375C19.2595 14.4375 17.5903 15.1289 16.3596 16.3596C15.1289 17.5903 14.4375 19.2595 14.4375 21C14.4375 22.7405 15.1289 24.4097 16.3596 25.6404C17.5903 26.8711 19.2595 27.5625 21 27.5625Z" fill="#7E3AF2"/>
</svg>
