<svg width="46" height="46" viewBox="0 0 46 46" fill="none" xmlns="http://www.w3.org/2000/svg">
<path fill-rule="evenodd" clip-rule="evenodd" d="M16.4891 7.28141C17.2978 6.34843 18.2979 5.60041 19.4213 5.08813C20.5448 4.57586 21.7653 4.31132 23 4.3125C25.6009 4.3125 27.9316 5.4625 29.5109 7.28141C30.7428 7.19346 31.9791 7.37166 33.136 7.80391C34.2928 8.23616 35.3431 8.91233 36.2154 9.7865C37.0892 10.6587 37.7652 11.7087 38.1974 12.8652C38.6297 14.0216 38.8081 15.2576 38.7205 16.4891C39.6531 17.298 40.4008 18.2981 40.9127 19.4216C41.4247 20.545 41.6889 21.7654 41.6875 23C41.6887 24.2347 41.4241 25.4552 40.9119 26.5787C40.3996 27.7021 39.6516 28.7022 38.7186 29.5109C38.8061 30.7424 38.6277 31.9784 38.1955 33.1348C37.7633 34.2913 37.0873 35.3413 36.2135 36.2135C35.3413 37.0873 34.2913 37.7633 33.1348 38.1955C31.9784 38.6277 30.7424 38.8061 29.5109 38.7186C28.7022 39.6516 27.7021 40.3996 26.5787 40.9119C25.4552 41.4241 24.2347 41.6887 23 41.6875C21.7653 41.6887 20.5448 41.4241 19.4213 40.9119C18.2979 40.3996 17.2978 39.6516 16.4891 38.7186C15.2574 38.8068 14.0211 38.6289 12.8643 38.197C11.7075 37.7651 10.6571 37.0892 9.78459 36.2154C8.91053 35.343 8.23442 34.2927 7.80218 33.1359C7.36993 31.979 7.19168 30.7427 7.27951 29.5109C6.34688 28.702 5.59921 27.7019 5.08727 26.5784C4.57533 25.455 4.31109 24.2346 4.31251 23C4.31251 20.3991 5.46251 18.0684 7.28142 16.4891C7.19375 15.2576 7.37208 14.0216 7.80433 12.8651C8.23657 11.7086 8.91259 10.6586 9.78651 9.7865C10.6586 8.91258 11.7086 8.23656 12.8651 7.80432C14.0216 7.37207 15.2576 7.19374 16.4891 7.28141ZM29.9192 19.5232C30.0342 19.3699 30.1174 19.1952 30.1639 19.0094C30.2104 18.8235 30.2193 18.6303 30.1901 18.4409C30.1609 18.2516 30.0941 18.07 29.9936 17.9068C29.8932 17.7437 29.7612 17.6022 29.6053 17.4908C29.4495 17.3794 29.2729 17.3003 29.086 17.2581C28.8991 17.2159 28.7057 17.2115 28.5171 17.2451C28.3285 17.2788 28.1485 17.3498 27.9877 17.4539C27.8269 17.5581 27.6886 17.6934 27.5808 17.8518L21.3785 26.5343L18.2658 23.4217C17.9933 23.1677 17.6329 23.0295 17.2605 23.0361C16.8881 23.0426 16.5328 23.1935 16.2694 23.4569C16.006 23.7203 15.8552 24.0756 15.8486 24.448C15.842 24.8204 15.9803 25.1808 16.2342 25.4533L20.5467 29.7658C20.6942 29.9133 20.8721 30.0268 21.068 30.0986C21.2638 30.1704 21.473 30.1988 21.6809 30.1816C21.8888 30.1645 22.0905 30.1023 22.2719 29.9994C22.4534 29.8965 22.6103 29.7553 22.7317 29.5857L29.9192 19.5232Z" fill="#7E3AF2"/>
</svg>
